<svg xmlns="http://www.w3.org/2000/svg" aria-hidden="true" style="position:absolute;width:0;height:0;overflow:hidden"><defs><symbol id="icon-delete-remove" viewBox="0 0 32 32"><path d="M7.523 29.828S8 32 10.453 32h11.093c2.453 0 2.93-2.172 2.93-2.172l2.19-21.295H5.333l2.19 21.295zm12.744-18.095a1.067 1.067 0 1 1 2.134 0l-1.067 16a1.067 1.067 0 0 1-2.134 0l1.067-16zm-5.334 0a1.067 1.067 0 0 1 2.134 0v16a1.067 1.067 0 1 1-2.134 0v-16zm-4.266-1.066c.589 0 1.067.477 1.067 1.067l1.067 16a1.067 1.067 0 0 1-2.134 0l-1.067-16c0-.589.478-1.067 1.067-1.067zm15.36-6.399h-4.693V2.133C21.334.515 20.811 0 19.201 0h-6.4c-1.477 0-2.133.715-2.133 2.133v2.135H5.975c-.943 0-1.707.716-1.707 1.601S5.031 7.47 5.975 7.47h20.053c.943 0 1.707-.716 1.707-1.601s-.763-1.601-1.707-1.601zm-6.827 0h-6.4V2.133h6.4v2.135z"/></symbol><symbol id="icon-edit" viewBox="0 0 32 32"><path d="M24.703 5.988s.136-.136 1.79 1.518 1.518 1.791 1.518 1.791L13.47 23.838s.136-.136-1.518-1.791-1.791-1.518-1.791-1.518L24.702 5.988zM9.617 21.074 8 26l4.926-1.617s.136-.136-1.518-1.79-1.791-1.519-1.791-1.519zM25.248 5.443l1.09-1.091s1.091-1.091 2.745.564.564 2.745.564 2.745l-1.09 1.091s.136-.136-1.518-1.791-1.791-1.518-1.791-1.518z"/><path d="M25 15.137V26.5a.5.5 0 0 1-.5.5h-19a.5.5 0 0 1-.5-.5v-19a.5.5 0 0 1 .5-.5h15.362l3-3H5.499c-1.93 0-3.5 1.57-3.5 3.5v19c0 1.93 1.57 3.5 3.5 3.5h19c1.93 0 3.5-1.57 3.5-3.5V12.137l-3 3z"/></symbol><symbol id="icon-linkedin" viewBox="0 0 32 32"><path fill="#f4f4fd" d="M31.992 32v-.001H32V20.263c0-5.741-1.236-10.164-7.948-10.164-3.227 0-5.392 1.771-6.276 3.449h-.093v-2.913h-6.364v21.364h6.627V21.42c0-2.785.528-5.479 3.977-5.479 3.399 0 3.449 3.179 3.449 5.657v10.401h6.62zM.528 10.636h6.635V32H.528V10.636zM3.843 0C1.722 0 0 1.721 0 3.843s1.721 3.879 3.843 3.879c2.121 0 3.843-1.757 3.843-3.879A3.846 3.846 0 0 0 3.843 0z" style="fill:var(--color3, #f4f4fd)"/></symbol></defs></svg>